<?xml version="1.0" encoding="UTF-8" standalone="no"?>
<svg width="22px" height="12px" viewBox="0 0 22 12" version="1.1" xmlns="http://www.w3.org/2000/svg" xmlns:xlink="http://www.w3.org/1999/xlink">
    <!-- Generator: Sketch 41 (35326) - http://www.bohemiancoding.com/sketch -->
    <title>person</title>
    <desc>Created with Sketch.</desc>
    <defs></defs>
    <g id="Symbols" stroke="none" stroke-width="1" fill="none" fill-rule="evenodd">
        <g id="list" transform="translate(-21.000000, -141.000000)" fill="#667C86">
            <g transform="translate(0.000000, 1.000000)" id="icon">
                <g transform="translate(21.000000, 140.000000)">
                    <path d="M7.33333333,4.58333333 L4.58333333,4.58333333 L4.58333333,1.83333333 L2.75,1.83333333 L2.75,4.58333333 L0,4.58333333 L0,6.41666667 L2.75,6.41666667 L2.75,9.16666667 L4.58333333,9.16666667 L4.58333333,6.41666667 L7.33333333,6.41666667 L7.33333333,4.58333333 L7.33333333,4.58333333 Z M16.5,5.5 C18.0216667,5.5 19.2408333,4.27166667 19.2408333,2.75 C19.2408333,1.22833333 18.0216667,0 16.5,0 C16.2066667,0 15.9225,0.0458333333 15.6658333,0.128333333 C16.1883333,0.870833333 16.4908333,1.76916667 16.4908333,2.75 C16.4908333,3.73083333 16.1791667,4.62 15.6658333,5.37166667 C15.9225,5.45416667 16.2066667,5.5 16.5,5.5 L16.5,5.5 Z M11.9166667,5.5 C13.4383333,5.5 14.6575,4.27166667 14.6575,2.75 C14.6575,1.22833333 13.4383333,0 11.9166667,0 C10.395,0 9.16666667,1.22833333 9.16666667,2.75 C9.16666667,4.27166667 10.395,5.5 11.9166667,5.5 L11.9166667,5.5 Z M17.985,7.48 C18.7458333,8.14916667 19.25,9.00166667 19.25,10.0833333 L19.25,11.9166667 L22,11.9166667 L22,10.0833333 C22,8.67166667 19.8275,7.80083333 17.985,7.48 L17.985,7.48 Z M11.9166667,7.33333333 C10.0833333,7.33333333 6.41666667,8.25 6.41666667,10.0833333 L6.41666667,11.9166667 L17.4166667,11.9166667 L17.4166667,10.0833333 C17.4166667,8.25 13.75,7.33333333 11.9166667,7.33333333 L11.9166667,7.33333333 Z" id="person"></path>
                </g>
            </g>
        </g>
    </g>
</svg>